<svg xmlns="http://www.w3.org/2000/svg" viewBox="0 0 1440 1000" fill="none" stroke="#849783" stroke-width=".7">
  <g opacity=".62">
    <path d="M-100 170C160 10 90 420 310 420S490 320 630 450 950 200 1540 420"/>
    <path d="M-100 185C150 25 90 435 310 435S485 335 630 465 940 215 1540 435"/>
    <path d="M-100 200C140 40 90 450 310 450S480 350 630 480 930 230 1540 450"/>
    <path d="M-100 220C125 60 90 465 310 465S475 365 630 495 920 245 1540 465"/>
    <path d="M-100 700C160 540 140 990 430 800S700 780 910 660 1240 960 1540 780"/>
    <path d="M-100 715C160 555 140 1005 430 815S700 795 910 675 1240 975 1540 795"/>
    <path d="M-100 730C160 570 140 1020 430 830S700 810 910 690 1240 990 1540 810"/>
    <path d="M-100 745C160 585 140 1035 430 845S700 825 910 705 1240 1005 1540 825"/>
  </g>
</svg>
